<?xml version="1.0" standalone="no"?>
<!DOCTYPE svg PUBLIC "-//W3C//DTD SVG 20010904//EN"
 "http://www.w3.org/TR/2001/REC-SVG-20010904/DTD/svg10.dtd">
<svg version="1.0" xmlns="http://www.w3.org/2000/svg"
 width="800.000000pt" height="800.000000pt" viewBox="0 0 800.000000 800.000000"
 preserveAspectRatio="xMidYMid meet">
<metadata>
Created by potrace 1.14, written by Peter Selinger 2001-2017
</metadata>
<g transform="translate(0.000000,800.000000) scale(0.100000,-0.100000)"
fill="#000000" stroke="none">
<path d="M4570 7087 c-3 -2 -34 -7 -70 -10 -94 -9 -189 -31 -340 -79 -139 -44
-188 -74 -355 -214 -111 -93 -122 -104 -205 -204 -105 -126 -244 -375 -244
-437 0 -20 -5 -33 -13 -33 -7 0 -14 -7 -14 -15 -2 -18 -2 -19 -17 -70 -35
-116 -53 -448 -31 -584 8 -55 22 -189 23 -229 0 -21 2 -22 12 -8 6 9 13 16 16
16 11 0 4 -36 -10 -52 -14 -16 -13 -18 5 -18 12 0 24 -7 27 -16 3 -8 2 -13 -3
-9 -20 12 -37 -7 -36 -39 0 -19 3 -37 7 -41 3 -4 0 -23 -9 -42 -12 -29 -12
-37 -2 -44 15 -9 6 -22 -16 -25 -21 -3 -74 -47 -74 -62 -1 -6 -5 -11 -10 -10
-14 4 -80 -73 -93 -109 -7 -18 -16 -33 -20 -33 -4 0 -8 -7 -8 -16 0 -10 6 -14
15 -10 8 3 15 1 15 -4 0 -5 -9 -12 -20 -15 -11 -3 -23 -18 -26 -33 -10 -42
-33 -82 -80 -143 -24 -30 -44 -58 -44 -62 0 -4 -27 -35 -61 -69 -63 -65 -101
-129 -80 -136 6 -2 11 -10 11 -18 0 -18 14 -18 50 1 27 14 30 14 40 -5 6 -11
7 -26 3 -33 -12 -19 -28 -109 -25 -139 4 -38 40 -48 64 -18 10 12 16 26 13 30
-3 5 -2 10 2 12 5 1 18 21 29 43 25 45 15 65 -31 65 -31 0 -35 35 -5 45 23 7
72 -26 77 -53 2 -9 8 -50 13 -91 10 -75 22 -101 46 -101 14 0 41 40 27 40 -4
0 -3 4 4 8 6 4 13 16 15 27 3 18 -2 20 -34 17 -33 -3 -38 -1 -38 17 0 11 9 26
20 34 11 8 17 17 13 20 -3 4 -3 7 2 7 4 0 14 -8 22 -17 7 -10 13 -13 12 -8 -5
35 3 94 15 110 13 18 15 18 60 1 62 -24 96 -27 96 -9 0 20 -38 91 -53 100 -8
4 -21 29 -30 55 -13 41 -14 52 -2 75 7 16 15 35 17 43 2 8 9 20 16 25 7 6 14
17 16 25 2 8 6 22 9 30 4 8 8 26 9 40 3 26 25 55 41 55 6 0 13 8 16 18 6 16 7
16 23 -3 16 -18 16 -20 0 -30 -15 -9 -15 -10 6 -16 12 -3 22 -10 22 -15 0 -5
9 -9 20 -9 12 0 17 -5 14 -14 -3 -8 5 -21 18 -30 12 -9 19 -16 15 -16 -5 0 3
-15 17 -33 14 -18 57 -98 97 -177 39 -80 76 -148 81 -151 5 -3 8 -10 6 -15 -7
-21 34 -102 55 -109 19 -6 19 -8 5 -12 -10 -2 -18 -5 -18 -6 0 -11 37 -96 41
-93 2 2 5 -13 6 -35 0 -21 -3 -39 -8 -39 -5 0 -9 8 -9 17 0 9 -3 13 -6 10 -4
-3 0 -21 9 -40 9 -18 19 -57 22 -87 4 -30 9 -59 13 -64 3 -6 7 -22 8 -36 6
-48 15 -70 30 -70 10 0 14 -8 11 -27 -3 -16 -10 -27 -17 -25 -16 4 -100 74
-100 84 0 4 -6 8 -13 8 -7 0 -17 8 -22 19 -6 10 -18 32 -28 49 -9 17 -18 43
-19 57 -1 14 -5 25 -8 25 -3 0 -6 34 -7 75 -2 53 1 75 10 76 24 3 42 -3 60
-18 9 -9 17 -11 17 -5 0 38 -92 54 -149 26 -45 -23 -64 -67 -66 -154 0 -19 -4
-38 -8 -41 -5 -3 -10 -26 -11 -50 -2 -24 -7 -66 -11 -93 -6 -37 -4 -50 6 -57
11 -7 10 -9 -5 -9 -20 0 -137 -105 -128 -115 3 -3 -3 -11 -12 -18 -13 -9 -16
-20 -12 -35 6 -19 13 -21 62 -17 60 4 56 10 59 -78 2 -56 13 -70 46 -62 24 6
69 63 69 88 0 31 49 44 50 13 1 -6 10 -22 21 -35 16 -19 24 -23 37 -15 22 14
27 34 8 34 -9 0 -16 4 -16 9 0 6 9 8 21 6 15 -3 19 0 15 11 -3 9 -6 23 -7 32
0 12 -3 10 -9 -5 -12 -30 -23 -29 -62 6 -32 29 -33 30 -13 45 11 9 28 14 38
12 16 -4 22 6 18 28 -3 13 20 76 27 76 4 0 20 -28 36 -62 17 -33 37 -63 46
-65 14 -4 16 -15 11 -66 -1 -5 -5 -6 -10 -2 -10 5 -26 -31 -23 -50 1 -6 -20
-22 -46 -37 -68 -38 -170 -137 -152 -148 19 -12 4 -42 -20 -38 -23 3 -28 -5
-85 -122 -76 -157 -86 -181 -82 -193 3 -7 6 -5 6 5 1 9 31 47 67 85 67 69 94
116 121 207 15 51 60 118 97 145 51 38 107 60 129 52 12 -4 27 -6 34 -4 6 2
19 -7 28 -21 22 -34 56 -149 46 -156 -4 -3 -11 -16 -14 -30 -4 -14 -11 -31
-15 -38 -10 -16 -52 -24 -66 -14 -6 5 -18 8 -26 7 -8 -1 -22 -3 -31 -3 -20 -2
-81 -57 -72 -65 3 -4 -1 -7 -11 -7 -10 0 -14 -5 -11 -11 4 -6 -1 -13 -11 -16
-31 -8 -85 -83 -78 -106 5 -16 3 -19 -10 -14 -22 9 -49 -89 -46 -162 10 -194
-2 -307 -40 -369 -24 -39 -50 -34 -77 16 -24 44 -22 87 6 162 29 76 4 113 -47
67 -34 -31 -44 11 -15 66 9 18 19 62 22 99 7 75 -3 83 -13 11 -10 -64 -12 -71
-30 -122 -9 -24 -14 -46 -12 -48 2 -3 0 -17 -4 -33 -7 -23 -5 -28 6 -23 10 4
12 0 8 -11 -3 -9 -10 -16 -14 -16 -15 0 -18 -51 -4 -57 18 -7 18 -32 0 -39
-27 -10 -9 -151 29 -224 20 -39 88 -111 121 -128 40 -21 103 -22 200 -2 105
21 163 46 292 124 81 49 83 52 81 86 -2 20 1 41 5 48 13 22 -23 41 -56 30 -24
-9 -36 -25 -42 -62 -5 -25 -38 -77 -59 -90 -34 -22 -131 -20 -152 4 -17 19
-17 22 0 67 21 57 128 168 163 170 38 3 125 48 160 84 18 18 44 57 58 85 25
51 48 158 32 148 -4 -3 -8 -1 -8 5 0 5 5 13 10 16 6 4 8 16 5 27 -4 12 0 27
11 39 15 16 15 19 2 19 -17 0 -32 52 -17 60 5 3 7 16 5 27 -3 13 2 24 10 27 9
3 13 9 10 14 -2 4 5 9 16 9 12 1 25 8 29 15 5 8 9 9 9 2 0 -6 18 -14 41 -17
49 -6 95 -36 134 -88 16 -21 34 -39 40 -39 20 0 11 -91 -13 -138 -24 -45 -93
-122 -109 -122 -18 0 -61 -40 -77 -70 -15 -30 -26 -72 -31 -116 -1 -13 -7 -29
-12 -36 -5 -7 -13 -22 -17 -33 -6 -15 -4 -17 5 -8 6 6 16 20 23 31 6 11 30 45
54 75 23 31 42 60 42 66 0 5 3 11 8 13 8 4 42 53 103 153 42 68 43 73 43 150
-1 44 -4 106 -9 137 -8 56 -7 57 25 87 41 37 125 82 204 110 64 22 94 44 107
79 5 12 14 21 20 20 6 -2 16 6 22 17 7 10 22 28 35 38 16 13 20 23 13 30 -6 6
-15 4 -26 -7 -9 -9 -23 -16 -31 -16 -27 0 -14 37 25 68 39 31 57 30 45 -2 -9
-22 9 -20 31 4 13 14 14 20 5 20 -9 0 -5 9 9 24 29 31 44 92 29 120 -15 28
-68 76 -85 76 -7 0 -13 4 -13 9 0 13 -67 34 -90 28 -32 -8 -54 16 -45 49 20
77 26 318 10 414 -20 113 -56 240 -76 266 -5 6 -6 14 -2 17 3 4 -1 15 -10 25
-10 10 -15 21 -12 24 3 3 -10 41 -29 84 -65 150 -76 204 -40 204 7 0 32 -39
56 -87 40 -81 46 -88 73 -88 29 0 30 2 31 45 1 29 0 34 -3 13 -4 -30 -6 -31
-29 -21 -14 6 -27 23 -30 37 -3 14 -10 44 -15 67 -14 52 -9 88 12 92 12 2 20
-13 33 -58 10 -34 20 -60 22 -57 3 3 0 23 -5 45 -6 22 -13 54 -15 72 -3 28 0
34 30 46 19 8 37 14 41 13 22 -4 33 3 33 20 0 11 -5 23 -10 26 -6 4 -22 24
-36 46 -13 21 -28 38 -32 36 -8 -2 -57 44 -57 56 0 9 -53 37 -72 37 -8 0 -12
4 -9 8 3 5 -6 15 -19 22 -14 7 -25 20 -25 28 0 9 -6 12 -16 8 -8 -3 -12 -2 -9
4 3 5 -9 18 -27 29 -18 11 -37 23 -43 28 -25 21 -113 62 -119 56 -3 -3 -6 -1
-6 5 0 7 -9 12 -21 12 -11 0 -27 6 -35 14 -8 8 -23 12 -35 9 -14 -4 -20 -2
-16 4 9 15 -51 25 -74 13 -15 -9 -17 -8 -12 7 5 12 2 15 -10 10 -9 -3 -19 -2
-22 3 -12 19 -25 9 -19 -14 7 -29 -2 -36 -38 -29 -24 5 -26 8 -17 30 5 13 9
28 9 33 0 9 -55 24 -65 18 -2 -2 -12 7 -21 20 -9 13 -27 27 -40 32 -15 6 -22
15 -18 25 3 8 1 15 -6 15 -6 0 -8 5 -5 10 3 6 3 10 -2 10 -4 0 -9 10 -9 23 -1
12 -9 54 -17 92 -51 227 -31 450 57 623 14 28 23 52 19 52 -4 0 1 6 12 13 11
9 15 19 10 27 -5 8 -3 11 5 8 8 -2 48 37 93 91 174 207 299 301 545 407 18 8
36 14 41 14 5 0 25 7 46 15 30 13 34 19 25 30 -9 11 -9 23 0 49 23 72 97 118
192 118 99 1 151 -58 112 -129 -15 -29 -22 -34 -50 -31 -18 1 -36 0 -39 -3 -3
-4 25 -9 62 -12 130 -12 197 -28 306 -72 14 -6 17 -2 17 23 0 31 8 37 58 47
33 6 95 -38 134 -95 21 -30 38 -62 38 -71 0 -25 -27 -42 -55 -35 -31 8 -32 -7
-4 -37 11 -12 39 -47 62 -77 23 -30 45 -56 50 -58 4 -2 7 -8 7 -14 0 -5 7 -16
15 -24 12 -13 15 -12 25 5 9 18 13 19 28 6 9 -7 41 -32 70 -55 63 -49 92 -92
86 -128 -7 -35 -23 -62 -37 -62 -12 0 -47 34 -47 46 0 3 -9 17 -20 31 -15 19
-20 21 -20 9 0 -9 3 -16 8 -16 4 0 12 -9 17 -19 148 -283 173 -313 219 -262
22 24 21 66 -3 171 -11 50 -67 187 -84 209 -6 7 -12 19 -13 26 -4 28 -98 184
-107 178 -5 -3 -7 0 -5 8 5 13 -23 59 -63 104 -93 105 -122 133 -171 172 -79
60 -199 133 -209 127 -5 -3 -9 -1 -9 5 0 21 -214 108 -337 136 -65 15 -313 32
-323 22z"/>
<path d="M4110 2205 c-7 -9 -11 -17 -9 -20 3 -2 10 5 17 15 14 24 10 26 -8 5z"/>
<path d="M3368 1542 c-25 -2 -38 -8 -38 -18 0 -16 -16 -19 -25 -4 -13 21 -175
-88 -175 -118 0 -7 -4 -12 -8 -12 -5 0 -14 -12 -20 -26 -7 -14 -8 -23 -2 -19
16 10 12 -2 -7 -20 -24 -25 -29 -112 -9 -172 21 -65 53 -107 115 -154 185
-138 474 -76 565 121 27 58 28 169 2 220 -36 72 -41 79 -63 91 -13 7 -21 15
-18 17 9 9 -77 61 -125 77 -44 14 -132 22 -192 17z"/>
<path d="M1685 1529 c-91 -5 -104 -9 -50 -13 43 -3 74 -23 86 -53 8 -22 13
-387 6 -462 -1 -13 -9 -26 -17 -27 -30 -7 -90 -29 -90 -34 0 -5 350 -5 360 0
5 2 -54 17 -98 24 -25 4 -42 16 -23 16 9 0 11 9 5 33 -4 17 -8 74 -9 125 l-2
92 103 0 c57 0 105 4 108 8 3 5 -42 8 -99 7 -67 -1 -105 3 -106 9 -5 50 -3
167 3 191 11 42 39 66 81 68 50 3 47 15 -5 19 -29 2 -54 -3 -77 -16 -29 -17
-34 -17 -29 -4 8 21 -27 25 -147 17z"/>
<path d="M2124 1531 c-2 -2 -21 -4 -41 -4 -38 0 -38 0 9 -11 77 -18 83 -29 83
-159 l0 -112 -37 0 c-20 0 -40 -3 -44 -7 -4 -5 13 -8 37 -8 33 0 47 -5 57 -20
7 -12 8 -20 2 -20 -6 0 -10 -31 -9 -77 1 -114 -17 -149 -83 -159 -79 -13 -32
-19 147 -19 102 0 185 3 185 7 0 7 -38 12 -61 10 -6 -1 -13 5 -59 56 -12 13
-18 28 -13 35 11 17 10 61 -2 70 -7 5 -7 9 1 15 11 8 13 200 2 218 -4 6 -4 14
0 18 4 4 8 17 8 29 1 12 2 32 3 44 2 34 42 73 79 76 78 8 33 16 -108 19 -83 2
-154 1 -156 -1z"/>
<path d="M4955 1529 c-44 -7 -44 -8 -1 -15 37 -6 86 -41 86 -60 0 -8 3 -13 8
-11 9 6 10 -8 15 -185 2 -82 1 -148 -2 -148 -7 0 -14 7 -238 238 -158 163
-217 212 -199 167 6 -17 -9 -21 -19 -5 -4 6 -10 8 -15 5 -5 -3 -11 -1 -15 5
-3 6 -44 9 -93 9 -55 -1 -80 -4 -67 -10 11 -4 30 -8 43 -8 27 -1 72 -46 72
-72 0 -22 17 -25 22 -4 2 9 25 -6 68 -48 36 -34 68 -61 72 -60 5 2 8 -3 8 -10
0 -16 156 -178 164 -169 3 3 6 0 6 -7 0 -13 189 -211 201 -211 4 0 9 114 11
253 3 223 5 255 21 278 16 25 61 50 95 56 27 4 25 13 -4 14 -16 0 -67 1 -114
2 -47 1 -103 -1 -125 -4z"/>
<path d="M5934 1522 c-8 -8 -15 -9 -19 -2 -3 5 -26 10 -51 10 -25 0 -43 -4
-40 -9 3 -5 17 -8 32 -8 40 0 72 -23 80 -57 4 -17 8 -80 9 -141 1 -60 3 -114
5 -120 1 -5 1 -12 0 -15 -1 -3 -4 -39 -5 -81 -4 -104 -21 -136 -80 -145 -79
-11 -49 -19 75 -19 66 0 120 3 120 8 0 4 8 4 18 -1 9 -5 37 -8 62 -6 66 3 70
5 21 15 -50 10 -69 23 -83 58 -9 25 -13 424 -4 439 2 4 1 14 -4 22 -6 10 4 18
43 32 29 10 57 16 64 14 7 -3 15 -1 18 4 4 6 -10 10 -32 10 -21 1 -78 2 -127
3 -61 1 -94 -2 -102 -11z"/>
<path d="M4532 1307 c1 -59 5 -107 8 -107 9 0 6 198 -3 206 -4 5 -6 -40 -5
-99z"/>
<path d="M4528 1093 c-4 -78 -7 -88 -31 -109 -14 -12 -45 -25 -68 -29 -23 -4
-37 -10 -30 -14 14 -9 124 -6 140 3 6 4 11 3 11 -2 0 -10 147 -9 157 1 3 4 -8
7 -26 7 -49 0 -98 25 -116 59 -9 18 -17 60 -18 101 -1 39 -5 70 -8 70 -4 0 -9
-39 -11 -87z"/>
</g>
</svg>
